# xmcd
#
# Track frame offsets: 
#        150
#        31258
#        49118
#        69145
#        102943
#        154085
#        189085
#        299983
#
# Disc length: 4373 seconds
#
# Revision: 1
# Processed by: cddbd v1.5.2PL0 Copyright (c) Steve Scherf et al.
# Submitted via: ExactAudioCopy v1.0b3
#
DISCID=68111308
DTITLE=Mr. Sirius - Incredible Tour
DYEAR=1991
DGENRE=Progressive Rock
TTITLE0=Opening～Requiem (original version)
TTITLE1=Advance Billing
TTITLE2=Madrigal (from "all the fallen people")
TTITLE3=Time In The Emage
TTITLE4=Babooshka～Love Incomplete
TTITLE5=Kokan De Jealousy (perfect version)
TTITLE6=Siberian Khatru'90
TTITLE7=Barren Dream～Grand Finale
EXTD=YEAR: 2006
EXTT0=
EXTT1=
EXTT2=
EXTT3=
EXTT4=
EXTT5=
EXTT6=
EXTT7=
PLAYORDER=
